# xmcd
#
# Track frame offsets: 
#        150
#        25571
#        55976
#        78073
#        108600
#        113812
#        137499
#        156839
#        166832
#        186437
#        191051
#
# Disc length: 2891 seconds
#
# Revision: 1
# Processed by: cddbd v1.5.2PL0 Copyright (c) Steve Scherf et al.
# Submitted via: ExactAudioCopy v0.99pb4
#
DISCID=880b490b
DTITLE=Fellsilent - The Hidden Words
DYEAR=2008
DGENRE=Metal
TTITLE0=Erase - Begin
TTITLE1=Double Negative
TTITLE2=Drowned In My Enemy
TTITLE3=Oblique
TTITLE4=Void
TTITLE5=Mindless Self
TTITLE6=Immerse
TTITLE7=Emerge
TTITLE8=Silence Is The Loudest Cry For Help
TTITLE9=The Sleeper Must Awake
TTITLE10=Age Of Deception
EXTD=
EXTT0=
EXTT1=
EXTT2=
EXTT3=
EXTT4=
EXTT5=
EXTT6=
EXTT7=
EXTT8=
EXTT9=
EXTT10=
PLAYORDER=
